<svg width="25" height="25" viewBox="0 0 25 25" fill="none" xmlns="http://www.w3.org/2000/svg">
<path d="M17.1875 7.86459L7.00521 18.0469C6.84896 18.2031 6.66667 18.2813 6.45833 18.2813C6.25 18.2813 6.06771 18.2031 5.91146 18.0469C5.75521 17.8906 5.67708 17.704 5.67708 17.487C5.67708 17.27 5.75521 17.0833 5.91146 16.9271L16.0937 6.77084H7.03125C6.80555 6.77084 6.61892 6.69706 6.47135 6.54949C6.32378 6.40192 6.25 6.21529 6.25 5.98959C6.25 5.7639 6.32378 5.57727 6.47135 5.4297C6.61892 5.28213 6.80555 5.20834 7.03125 5.20834H17.9687C18.1944 5.20834 18.3811 5.28213 18.5286 5.4297C18.6762 5.57727 18.75 5.7639 18.75 5.98959V16.9271C18.75 17.1528 18.6762 17.3394 18.5286 17.487C18.3811 17.6346 18.1944 17.7083 17.9687 17.7083C17.7431 17.7083 17.5564 17.6346 17.4089 17.487C17.2613 17.3394 17.1875 17.1528 17.1875 16.9271V7.86459Z" fill="white"/>
</svg>
